{"title":"Dukhtar (2015) 720p Webrip x264 AC3 5.1 Urdu MSubs -DDR","uid":15821507,"size":1865397720,"categoryP":"video","categoryS":"hd___movies","magnet":"?xt=urn:btih:d670a1d18fc9a76402e8baa5515b125df44c509c&amp;dn=Dukhtar+%282015%29+720p+Webrip+x264+AC3+5.1+Urdu+MSubs+-DDR&amp;tr=udp%3A%2F%2Ftracker.leechers-paradise.org%3A6969&amp;tr=udp%3A%2F%2Fzer0day.ch%3A1337&amp;tr=udp%3A%2F%2Fopen.demonii.com%3A1337&amp;tr=udp%3A%2F%2Ftracker.coppersurfer.tk%3A6969&amp;tr=udp%3A%2F%2Fexodus.desync.com%3A6969","seeders":72,"leechers":126,"uploader":"SaM","files":3,"time":1473772828,"description":"720p WebRip x264\r\n\r\nUrduAC3 5.1 Audio\r\n\r\n\r\n\r\nEnglish &amp; French Subtitles\r\n\r\n\r\nSynopsis:\r\n\r\nAWARDS\r\nCinema for Peace Awards 2015\r\nNominated\r\nCinema for Peace Award for Justice Afia Nathaniel / Muhammad Khalid Ali\r\n\r\nColumbia University Film Festival 2015\r\nWon\r\nEzra Litwak Award for Distinction in Screenwriting Afia Nathaniel\r\n\r\nCréteil International Women's Film Festival 2015\r\nWon\r\nAudience Award Best Feature Film (Meilleur Long Metràge Fiction)\r\nAfia Nathaniel\r\n\r\nGotham Awards 2015\r\nNominated\r\nSpotlight on Women Filmmakers 'Live the Dream' Grant Afia Nathaniel\r\nProject: Dukhthar\r\n\r\nLux Style Awards 2015\r\nWon\r\nLux Style Award Best Actress\r\nSaleha Aref\r\nNominated\r\nLux Style Award Best Actress\r\nSamiya Mumtaz\r\nBest Original Soundtrack\r\nSahir Ali Bagga\r\n\r\nMinneapolis St. Paul International Film Festival 2015\r\nNominated\r\nEmerging Filmmaker Best World Feature\r\nAfia Nathaniel\r\n\r\nSonoma International Film Festival 2015\r\nWon\r\nJury Award Best World Feature\r\nAfia Nathaniel\r\nMuhammad Khalid Ali\r\n\r\n\r\n\r\n\r\n\r\n{ SCREENSHOTS }\r\n \nhttp://extraimago.com/image/wlAM \nhttp://extraimago.com/image/wlA9 \nhttp://extraimago.com/image/wlA3 \nhttp://extraimago.com/image/wlAb \nhttp://extraimago.com/image/wlAh \nhttp://extraimago.com/image/wlAd \nhttp://extraimago.com/image/wlAI \nhttp://extraimago.com/image/wlAl \nhttp://extraimago.com/image/wlAi \nhttp://extraimago.com/image/wlAm \nhttp://extraimago.com/image/wlAR \nhttp://extraimago.com/image/wlAQ\r\n\r\nSpecs:\r\nSource: Netflix HD Rip @ DDR\r\n\r\nFormat : Matroska\r\nFile size : 1.71 GiB\r\nDuration : 1 h 32 min\r\nOverall bit rate : 2 641 kb/s\r\n\r\nVideo\r\nFormat : AVC\r\nFormat/Info : Advanced Video Codec\r\nFormat profile :   \r\nFormat settings, CABAC : Yes\r\nFormat settings, ReFrames : 12 frames\r\nCodec ID : V_MPEG4/ISO/AVC\r\nDuration : 1 h 32 min\r\nBit rate : 2 000 kb/s\r\nWidth : 1 280 pixels\r\nHeight : 544 pixels\r\nDisplay aspect ratio : 2.35:1\r\nFrame rate mode : Constant\r\nFrame rate : 24.000 FPS\r\nColor space : YUV\r\nChroma subsampling : 4:2:0\r\nBit depth : 8 bits\r\nScan type : Progressive\r\nBits/(Pixel*Frame) : 0.120\r\nStream size : 1.30 GiB (76%)\r\nDefault : Yes\r\nForced : No\r\nColor range : Limited\r\nColor primaries : BT.709\r\nTransfer characteristics : BT.709\r\nMatrix coefficients : BT.709\r\n\r\nAudio\r\nFormat : AC-3\r\nFormat/Info : Audio Coding 3\r\nMode extension : CM (complete main)\r\nFormat settings, Endianness : Big\r\nCodec ID : A_AC3\r\nDuration : 1 h 32 min\r\nBit rate mode : Constant\r\nBit rate : 640 kb/s\r\nChannel(s) : 6 channels\r\nChannel positions : Front: L C R, Side: L R, LFE\r\nSampling rate : 48.0 kHz\r\nFrame rate : 31.250 FPS (1536 spf)\r\nCompression mode : Lossy\r\nDelay relative to video : 24 ms\r\nStream size : 425 MiB (24%)\r\nLanguage : Urdu\r\nDefault : Yes\r\nForced : No\r\n\r\nSAMPLE Included","torrent":{"xt":"urn:btih:d670a1d18fc9a76402e8baa5515b125df44c509c","amp;dn":"Dukhtar+%282015%29+720p+Webrip+x264+AC3+5.1+Urdu+MSubs+-DDR","amp;tr":["udp%3A%2F%2Ftracker.leechers-paradise.org%3A6969","udp%3A%2F%2Fzer0day.ch%3A1337","udp%3A%2F%2Fopen.demonii.com%3A1337","udp%3A%2F%2Ftracker.coppersurfer.tk%3A6969","udp%3A%2F%2Fexodus.desync.com%3A6969"],"infoHash":"d670a1d18fc9a76402e8baa5515b125df44c509c","infoHashBuffer":{"type":"Buffer","data":[214,112,161,209,143,201,167,100,2,232,186,165,81,91,18,93,244,76,80,156]},"announce":[],"urlList":[]}}